HIERARCHY
ROOT Hips
{
    OFFSET 0.000000 0.000000 0.000000
    CHANNELS 6 Xposition Yposition Zposition Zrotation Xrotation Yrotation
        JOINT Chest
        {
            OFFSET -0.000000 31.599348 -0.000000
            CHANNELS 3 Zrotation Xrotation Yrotation
            JOINT Neck
            {
                OFFSET -0.000000 23.422918 0.000000
                CHANNELS 3 Zrotation Xrotation Yrotation
                JOINT Head
                {
                    OFFSET -0.000000 10.877777 0.000000
                    CHANNELS 3 Zrotation Xrotation Yrotation
                    End Site
                    {
                        OFFSET -0.000000 16.811113 0.000000
                    }
                }
            }
            JOINT LeftCollar
            {
                OFFSET -0.000000 23.422918 0.000000
                CHANNELS 3 Zrotation Xrotation Yrotation
                JOINT LeftShoulder
                {
                    OFFSET 22.500000 -0.000000 0.000000
                    CHANNELS 3 Zrotation Xrotation Yrotation
                    JOINT LeftElbow
                    {
                        OFFSET 26.183765 0.000000 0.000000
                        CHANNELS 3 Zrotation Xrotation Yrotation
                        JOINT LeftWrist
                        {
                            OFFSET 21.121546 0.000000 0.000000
                            CHANNELS 3 Zrotation Xrotation Yrotation
                            End Site
                            {
                                OFFSET 14.833334 0.000000 0.000000
                            }
                        }
                    }
                }
            }
            JOINT RightCollar
            {
                OFFSET -0.000000 23.422918 0.000000
                CHANNELS 3 Zrotation Xrotation Yrotation
                JOINT RightShoulder
                {
                    OFFSET -22.500000 0.000000 0.000000
                    CHANNELS 3 Zrotation Xrotation Yrotation
                    JOINT RightElbow
                    {
                        OFFSET -26.183765 0.000000 0.000000
                        CHANNELS 3 Zrotation Xrotation Yrotation
                        JOINT RightWrist
                        {
                            OFFSET -21.121546 0.000000 0.000000
                            CHANNELS 3 Zrotation Xrotation Yrotation
                            End Site
                            {
                                OFFSET -14.833334 0.000000 0.000000
                            }
                        }
                    }
                }
            }
        }
    JOINT LeftHip
    {
        OFFSET 11.866667 0.000000 0.000000
        CHANNELS 3 Zrotation Xrotation Yrotation
        JOINT LeftKnee
        {
            OFFSET -0.000000 -43.651608 0.000000
            CHANNELS 3 Zrotation Xrotation Yrotation
            JOINT LeftAnkle
            {
                OFFSET -0.000000 -37.563271 0.000000
                CHANNELS 3 Zrotation Xrotation Yrotation
                End Site
                {
                    OFFSET -0.000000 -4.944445 16.811113
                }
            }
        }
    }
    JOINT RightHip
    {
        OFFSET -11.866667 0.000000 0.000000
        CHANNELS 3 Zrotation Xrotation Yrotation
        JOINT RightKnee
        {
            OFFSET -0.000000 -43.651608 0.000000
            CHANNELS 3 Zrotation Xrotation Yrotation
            JOINT RightAnkle
            {
                OFFSET -0.000000 -37.563271 0.000000
                CHANNELS 3 Zrotation Xrotation Yrotation
                End Site
                {
                    OFFSET -0.000000 -4.944445 16.811113
                }
            }
        }
    }
}
MOTION
Frames:    11
Frame Time:    0.010000
34.076069    89.312675    5.854054    2.872344    -10.398515    6.382554    3.007959    11.714670    -2.300997    3.265013    2.485575    -4.828612    -6.789644    -22.581791    -6.115899    -33.210079    1.076620    -3.284079    2.542995    56.918373    -74.187302    89.460625    -35.591831    -36.565647    47.966534    -54.010601    43.430199    26.881680    -4.822977    -18.218834    -18.529211    70.805603    94.723488    -66.004265    -15.536469    23.637596    -52.412323    -71.352203    -61.112923    -1.619517    -17.826542    -9.250751    22.187128    80.677338    -21.402378    -8.854765    -23.466242    21.657570    8.479712    -4.974589    -2.206932    -9.468013    48.461193    48.485283    -17.403460    -14.322657    -43.268940    
34.324390    89.742416    5.832162    3.450805    -10.745115    5.474941    2.067771    12.083254    -1.350851    3.328974    2.624234    -4.930246    -6.601641    -22.063662    -6.143780    -32.931618    0.972745    -2.995906    0.720315    57.228619    -72.128349    88.369926    -36.394714    -38.333328    48.270870    -52.439339    43.812653    27.207111    -4.441661    -16.364376    -18.465422    71.028496    94.621170    -68.631447    -16.387093    23.508692    -51.632465    -71.245903    -61.108021    -1.908250    -18.252274    -7.868721    24.034719    81.670433    -23.004995    -8.938544    -23.848465    21.685854    7.850524    -4.337883    -1.289498    -9.691419    48.037338    49.348824    -17.057894    -13.948404    -43.699596    
34.551853    90.314751    5.809095    4.014823    -11.089050    4.535757    1.120038    12.451370    -0.326624    3.374951    2.666171    -5.077848    -6.418400    -21.432943    -6.217247    -32.668213    0.887923    -2.830648    -1.626264    57.580082    -69.348015    86.811424    -37.358238    -40.601330    48.281826    -50.680794    43.957870    27.396463    -4.179164    -15.812398    -23.478182    69.555168    100.199829    -70.534271    -16.367435    22.026100    -50.327766    -72.007446    -60.222702    -2.128202    -18.617636    -6.502331    25.268761    82.523750    -24.070913    -8.950554    -24.129015    21.660957    7.247405    -3.570989    -0.182748    -9.768795    47.272423    49.787727    -16.455458    -13.414554    -43.900784    
34.766113    91.011879    5.778491    4.557534    -11.344808    3.710034    0.217259    12.716716    0.649080    3.424228    2.614394    -5.287508    -6.300696    -20.686640    -6.363327    -32.455513    0.837889    -2.780056    -4.329487    57.945122    -66.004066    84.790146    -38.411304    -43.305977    47.992565    -48.785133    43.837093    27.562574    -4.117905    -16.288738    -28.801023    66.360741    106.987411    -71.050308    -15.443202    20.120277    -49.459846    -73.011520    -59.187389    -2.353526    -19.033550    -5.328106    25.731440    83.251038    -24.431654    -8.967396    -24.290585    21.568836    6.629101    -2.750595    0.861957    -9.766608    46.138100    49.898430    -15.634130    -12.751666    -43.837418    
34.982006    91.813049    5.735242    5.096004    -11.473910    3.058411    -0.637512    12.842863    1.517614    3.510909    2.447718    -5.544556    -6.305348    -19.801023    -6.574280    -32.308411    0.786471    -2.771464    -7.095565    58.328056    -62.424789    82.450302    -39.441067    -46.192295    47.189075    -46.841583    43.228329    27.419212    -4.129842    -16.952440    -36.202583    63.016434    115.400764    -72.564903    -14.085959    16.809950    -49.958981    -74.881470    -59.067467    -2.655959    -19.542509    -4.424468    25.341021    83.853622    -24.001785    -9.030052    -24.333687    21.421944    5.948797    -1.937061    1.685387    -9.754196    44.669033    49.822830    -14.608438    -11.983704    -43.517937    
35.211544    92.696075    5.676092    5.644304    -11.475798    2.563233    -1.464835    12.848075    2.272357    3.667224    2.126711    -5.798640    -6.446180    -18.751926    -6.798640    -32.205936    0.753574    -2.692625    -9.763600    58.688931    -58.820110    79.867897    -40.316029    -49.113152    45.966518    -44.964207    42.200443    27.301546    -4.065081    -16.733042    -37.951908    61.087864    118.379593    -73.697685    -12.904374    15.301620    -52.882843    -75.882057    -61.032776    -3.067448    -20.137390    -3.763674    24.246128    84.323311    -22.939920    -9.146887    -24.275518    21.250040    5.186304    -1.180922    2.247053    -9.773052    42.950825    49.689354    -13.372808    -11.114381    -42.993240    
35.459831    93.639542    5.601647    6.201279    -11.377577    2.163801    -2.272462    12.790181    2.932864    3.832796    1.605237    -6.033124    -6.643774    -17.530085    -7.007083    -32.121490    0.715427    -2.524392    -12.222563    59.075825    -55.374535    77.267014    -40.968422    -51.792133    44.215725    -43.213333    40.580677    27.274813    -3.988804    -16.148420    -36.521961    60.212082    117.997154    -74.587112    -12.326634    15.139813    -54.445393    -76.544197    -61.518322    -3.574942    -20.778069    -3.247999    22.888857    84.646461    -21.680407    -9.320796    -24.143591    21.067522    4.352649    -0.516779    2.596721    -9.829695    41.093662    49.601421    -11.918929    -10.129852    -42.361847    
35.725346    94.623878    5.515524    6.754230    -11.221335    1.796343    -3.059958    12.743562    3.525441    3.953660    0.855488    -6.215711    -6.803489    -16.159575    -7.154759    -32.023926    0.667079    -2.258839    -14.539948    59.493908    -52.070686    74.776756    -41.371876    -54.133831    42.206837    -41.621998    38.568012    27.329872    -3.903668    -15.592358    -33.710579    59.714653    115.806290    -75.206535    -12.322173    15.759498    -54.235237    -77.442688    -60.235546    -4.139560    -21.409834    -2.767704    21.804840    84.811172    -20.702631    -9.563710    -23.959984    20.854160    3.475939    0.039225    2.824277    -9.901114    39.208088    49.614876    -10.236530    -9.032139    -41.759727    
36.000793    95.630760    5.421074    7.283112    -11.045378    1.421648    -3.801144    12.764377    4.064647    3.974756    -0.103528    -6.329665    -6.839117    -14.711767    -7.217614    -31.897181    0.606453    -1.930826    -16.895990    59.916451    -48.764996    72.450317    -41.557503    -56.164139    40.258644    -40.183594    36.431915    27.417427    -3.833723    -15.245358    -30.749899    59.131172    113.070152    -75.623497    -12.645810    16.495010    -51.871128    -78.917892    -56.956615    -4.713067    -21.988325    -2.253743    21.267193    84.815025    -20.195587    -9.876607    -23.723919    20.577196    2.594702    0.479011    3.018914    -9.947849    37.391483    49.711452    -8.299564    -7.880262    -41.351276    
36.274754    96.640823    5.319505    7.763519    -10.868810    1.032455    -4.450597    12.866930    4.545511    3.846879    -1.194910    -6.380147    -6.691544    -13.295534    -7.200974    -31.739672    0.527536    -1.606793    -19.550686    60.293518    -45.230003    70.238930    -41.572979    -58.015724    38.662682    -38.883873    34.442833    27.506199    -3.786768    -15.144793    -28.348045    58.288239    110.598900    -75.868660    -12.983690    16.925714    -46.965599    -80.962685    -51.410419    -5.247312    -22.497372    -1.695195    21.141918    84.668098    -19.963757    -10.217359    -23.407953    20.232637    1.758173    0.789237    3.245532    -9.933215    35.731678    49.810555    -6.084733    -6.805790    -41.321648    
36.535362    97.631927    5.211206    8.173778    -10.694283    0.644183    -4.968258    13.031085    4.950281    3.557878    -2.311285    -6.376115    -6.348282    -12.020777    -7.116887    -31.547665    0.441019    -1.332148    -22.704176    60.552246    -41.310169    68.022926    -41.440544    -59.840050    37.555218    -37.702641    32.734455    27.591051    -3.789250    -15.224353    -26.758953    57.218124    108.746178    -75.989380    -13.111826    16.834150    -38.373020    -83.302147    -42.506771    -5.704539    -22.941221    -1.128444    20.996902    84.394012    -19.562477    -10.501917    -22.981194    19.861225    1.015957    0.952847    3.535761    -9.827164    34.319801    49.783978    -3.642530    -5.989252    -41.806328    
